<?xml version="1.0" encoding="UTF-8" standalone="no"?>
<svg
   xmlns:dc="http://purl.org/dc/elements/1.1/"
   xmlns:cc="http://creativecommons.org/ns#"
   xmlns:rdf="http://www.w3.org/1999/02/22-rdf-syntax-ns#"
   xmlns:svg="http://www.w3.org/2000/svg"
   xmlns="http://www.w3.org/2000/svg"
   xmlns:sodipodi="http://sodipodi.sourceforge.net/DTD/sodipodi-0.dtd"
   xmlns:inkscape="http://www.inkscape.org/namespaces/inkscape"
   version="1.1"
   id="icon-users"
   x="0px"
   y="0px"
   width="50px"
   height="50px"
   viewBox="0 0 50 50"
   enable-background="new 0 0 50 50"
   xml:space="preserve"
   inkscape:version="0.91 r13725"
   sodipodi:docname="icon.svg"><metadata
     id="metadata3474"><rdf:RDF><cc:Work
         rdf:about=""><dc:format>image/svg+xml</dc:format><dc:type
           rdf:resource="http://purl.org/dc/dcmitype/StillImage" /></cc:Work></rdf:RDF></metadata><defs
     id="defs3472"><linearGradient
       y2="1"
       id="svg_1"><stop
         id="stop4766"
         offset="0"
         stop-color="#e8e8e8" /><stop
         id="stop4768"
         offset="1"
         stop-color="#171717" /></linearGradient><linearGradient
       spreadMethod="pad"
       x2="1"
       y1="0"
       x1="0"
       y2="1"
       id="svg_2"><stop
         id="stop4771"
         offset="0"
         stop-color="#e8e8e8" /><stop
         id="stop4773"
         offset="1"
         stop-color="#171717" /></linearGradient><linearGradient
       spreadMethod="pad"
       x2="1"
       y1="0.363281"
       x1="0.488281"
       y2="1"
       id="svg_3"><stop
         id="stop4776"
         offset="0"
         stop-color="#e8e8e8" /><stop
         id="stop4778"
         offset="1"
         stop-color="#171717" /></linearGradient><linearGradient
       spreadMethod="pad"
       x2="1"
       y1="0"
       x1="0"
       y2="1"
       id="svg_4"><stop
         id="stop4781"
         offset="0"
         stop-opacity="0.996094"
         stop-color="#efefef" /><stop
         id="stop4783"
         offset="1"
         stop-opacity="0.996094"
         stop-color="#828282" /></linearGradient><linearGradient
       spreadMethod="pad"
       x2="1"
       y1="0"
       x1="0"
       y2="1"
       id="svg_5"><stop
         id="stop4786"
         offset="0"
         stop-opacity="0.992188"
         stop-color="#ffffff" /><stop
         id="stop4788"
         offset="1"
         stop-opacity="0.996094"
         stop-color="#828282" /></linearGradient><linearGradient
       spreadMethod="pad"
       x2="1"
       y1="0"
       x1="0"
       y2="1"
       id="svg_6"><stop
         id="stop4791"
         offset="0"
         stop-opacity="0.992188"
         stop-color="#ffffff" /><stop
         id="stop4793"
         offset="1"
         stop-opacity="0.996094"
         stop-color="#828282" /><stop
         id="stop4795"
         offset="1"
         stop-opacity="0.996094"
         stop-color="#828282" /></linearGradient><linearGradient
       spreadMethod="pad"
       x2="1"
       y1="0"
       x1="0"
       y2="1"
       id="svg_7"><stop
         id="stop4798"
         offset="0"
         stop-opacity="0.988281"
         stop-color="#ffffff" /><stop
         id="stop4800"
         offset="1"
         stop-opacity="0.992188"
         stop-color="#cccccc" /><stop
         id="stop4802"
         offset="1"
         stop-opacity="0.996094"
         stop-color="#828282" /><stop
         id="stop4804"
         offset="1"
         stop-opacity="0.996094"
         stop-color="#828282" /><stop
         id="stop4806"
         offset="1"
         stop-opacity="0.996094"
         stop-color="#828282" /></linearGradient><linearGradient
       spreadMethod="pad"
       x2="1"
       y1="0"
       x1="0"
       y2="1"
       id="svg_8"><stop
         id="stop4809"
         offset="0"
         stop-opacity="0.988281"
         stop-color="#ffffff" /><stop
         id="stop4811"
         offset="1"
         stop-opacity="0.992188"
         stop-color="#cccccc" /><stop
         id="stop4813"
         offset="1"
         stop-opacity="0.992188"
         stop-color="#cccccc" /><stop
         id="stop4815"
         offset="1"
         stop-opacity="0.996094"
         stop-color="#828282" /><stop
         id="stop4817"
         offset="1"
         stop-opacity="0.996094"
         stop-color="#828282" /><stop
         id="stop4819"
         offset="1"
         stop-opacity="0.996094"
         stop-color="#828282" /></linearGradient><linearGradient
       id="svg_9"><stop
         id="stop4822"
         offset="0"
         stop-color="#ffffff" /><stop
         id="stop4824"
         offset="1"
         stop-color="#000000" /></linearGradient><linearGradient
       id="svg_10"><stop
         id="stop4827"
         offset="0"
         stop-color="#ffffff" /><stop
         id="stop4829"
         offset="1"
         stop-opacity="0.996094"
         stop-color="#dddddd" /></linearGradient><linearGradient
       y2="1"
       x2="1"
       y1="0"
       x1="0"
       id="svg_11"><stop
         id="stop4832"
         offset="0"
         stop-color="#ffffff" /><stop
         id="stop4834"
         offset="1"
         stop-opacity="0.996094"
         stop-color="#dddddd" /></linearGradient><linearGradient
       y2="1"
       x2="1"
       y1="0"
       x1="0"
       id="svg_12"><stop
         id="stop4837"
         offset="0"
         stop-color="#ffffff" /><stop
         id="stop4839"
         offset="1"
         stop-opacity="0.992188"
         stop-color="#f2f2f2" /></linearGradient><linearGradient
       y2="1"
       x2="1"
       id="svg_13"><stop
         id="stop4842"
         offset="0"
         stop-opacity="0.996094"
         stop-color="#ffffff" /><stop
         id="stop4844"
         offset="1"
         stop-opacity="0.996094"
         stop-color="#c1c1c1" /></linearGradient><linearGradient
       y1="0"
       x1="0"
       y2="1"
       x2="1"
       id="svg_14"><stop
         id="stop4847"
         offset="0"
         stop-opacity="0.996094"
         stop-color="#ffffff" /><stop
         id="stop4849"
         offset="1"
         stop-opacity="0.996094"
         stop-color="#c1c1c1" /></linearGradient><linearGradient
       y2="1"
       x2="1"
       id="svg_16"><stop
         id="stop4857"
         offset="0"
         stop-color="#ffffff" /><stop
         id="stop4859"
         offset="1"
         stop-color="#000000" /></linearGradient><linearGradient
       y1="0"
       x1="0"
       y2="1"
       x2="1"
       id="svg_17"><stop
         id="stop4862"
         offset="0"
         stop-color="#ffffff" /><stop
         id="stop4864"
         offset="1"
         stop-opacity="0.996094"
         stop-color="#e0e0e0" /></linearGradient><linearGradient
       y1="0"
       x1="0"
       y2="1"
       x2="1"
       id="svg_18"><stop
         id="stop4867"
         offset="0"
         stop-color="#ffffff" /><stop
         id="stop4869"
         offset="1"
         stop-opacity="0.992188"
         stop-color="#cecece" /></linearGradient></defs><sodipodi:namedview
     pagecolor="#ffffff"
     bordercolor="#666666"
     borderopacity="1"
     objecttolerance="10"
     gridtolerance="10"
     guidetolerance="10"
     inkscape:pageopacity="0"
     inkscape:pageshadow="2"
     inkscape:window-width="1920"
     inkscape:window-height="1017"
     id="namedview3470"
     showgrid="false"
     inkscape:zoom="11.992531"
     inkscape:cx="21.594435"
     inkscape:cy="20.301596"
     inkscape:window-x="-8"
     inkscape:window-y="183"
     inkscape:window-maximized="1"
     inkscape:current-layer="icon-users"
     showguides="false"
     inkscape:guide-bbox="true"
     inkscape:snap-text-baseline="true"><sodipodi:guide
       position="-5.003114,59.537057"
       orientation="0,1"
       id="guide4280" /><sodipodi:guide
       position="-10.339769,50.698222"
       orientation="0,1"
       id="guide4282" /><sodipodi:guide
       position="-6.1705073,57.535811"
       orientation="0,1"
       id="guide4284" /><sodipodi:guide
       position="-6.5040482,52.532697"
       orientation="0,1"
       id="guide4286" /><sodipodi:guide
       position="1.0006228,54.533943"
       orientation="0,1"
       id="guide4288" /><sodipodi:guide
       position="39.386793,38.502359"
       orientation="1,0"
       id="guide4292" /><sodipodi:guide
       position="12.264151,32.783019"
       orientation="1,0"
       id="guide4294" /><inkscape:grid
       type="xygrid"
       id="grid4268" /><sodipodi:guide
       position="-6.4206629,25.766037"
       orientation="1,0"
       id="guide6030" /></sodipodi:namedview><linearGradient
     id="SVGID_1_"
     gradientUnits="userSpaceOnUse"
     x1="1095.707"
     y1="1590.3262"
     x2="1107.9801"
     y2="1615.3397"
     gradientTransform="matrix(1 0 0 1 -1090.3984 -1581.9609)"><stop
       offset="0"
       style="stop-color:#EAECEE"
       id="stop3451" /><stop
       offset="1"
       style="stop-color:#D7D8DA"
       id="stop3453" /></linearGradient><linearGradient
     id="SVGID_2_"
     gradientUnits="userSpaceOnUse"
     x1="1121.2383"
     y1="1585.1426"
     x2="1137.368"
     y2="1618.0168"
     gradientTransform="matrix(1 0 0 1 -1090.3984 -1581.9609)"><stop
       offset="0"
       style="stop-color:#EAECEE"
       id="stop3458" /><stop
       offset="1"
       style="stop-color:#D7D8DA"
       id="stop3460" /></linearGradient><text
     xml:space="preserve"
     style="font-style:normal;font-weight:normal;font-size:40px;line-height:125%;font-family:sans-serif;letter-spacing:0px;word-spacing:0px;fill:#000000;fill-opacity:1;stroke:none;stroke-width:1px;stroke-linecap:butt;stroke-linejoin:miter;stroke-opacity:1"
     x="9.375"
     y="18.867926"
     id="text4739"
     sodipodi:linespacing="125%"><tspan
       sodipodi:role="line"
       id="tspan4741"
       x="9.375"
       y="18.867926" /></text>
<text
     xml:space="preserve"
     style="font-style:normal;font-weight:normal;font-size:40px;line-height:125%;font-family:sans-serif;letter-spacing:0px;word-spacing:0px;fill:#000000;fill-opacity:1;stroke:none;stroke-width:1px;stroke-linecap:butt;stroke-linejoin:miter;stroke-opacity:1"
     x="-0.94339621"
     y="20.636791"
     id="text4743"
     sodipodi:linespacing="125%"><tspan
       sodipodi:role="line"
       id="tspan4747"
       x="-0.94339621"
       y="20.636791" /></text>
<g
     id="g4257"
     transform="translate(2.0392563,-0.5820693)" /><g
     id="g4883"
     transform="translate(0,-0.80440146)" /><g
     id="g6008"
     transform="translate(0.08338523,5.0031139)" /><g
     id="g6032"
     transform="translate(0.11320757,-0.05896226)"><g
       id="g6014"
       transform="matrix(1.5927843,0,0,1,-3.9611862,14.760813)" /><g
       transform="matrix(1.5927843,0,0,1,-3.9611862,17.137293)"
       id="g6022" /><g
       id="g6026"
       transform="matrix(1.5927843,0,0,1,-3.9611862,19.513772)" /></g><g
     id="g4474"
     transform="matrix(0.0426834,0,0,0.0426834,2.5197225,3.7679968)"
     style="fill:#33475f;fill-opacity:1"><g
       id="g4476"
       transform="matrix(1,0,0,-1,0,1920)"
       style="fill:#33475f;fill-opacity:1"><path
         id="path4478"
         d="m 132.5,930 c -5.7,0 -10.5,2 -14.5,5.9 -4,3.9 -5.9,8.8 -5.9,14.5 l 0,939.2 c 0,5.7 2,10.5 5.9,14.5 3.9,3.9 8.8,5.9 14.5,5.9 l 469.6,0 0,-265.4 c 0,-5.7 2,-10.5 5.9,-14.5 3.9,-4 8.8,-5.9 14.5,-5.9 l 265.4,0 0,-673.8 c 0,-5.7 -2,-10.5 -5.9,-14.5 -3.9,-3.9 -8.8,-5.9 -14.5,-5.9 l -735,0 z m 530.8,735 c -5.7,0 -10.5,2 -14.5,5.9 -3.9,3.9 -5.9,8.8 -5.9,14.5 l 0,224.6 245,-245 -224.6,0 z m -387.9,0 204.2,0 c 5.7,0 10.5,2 14.5,5.9 3.9,3.9 5.9,8.8 5.9,14.5 l 0,40.8 c 0,2.7 -0.5,5.4 -1.6,8 -1.1,2.6 -2.5,4.8 -4.3,6.5 -1.8,1.8 -3.9,3.2 -6.5,4.3 -2.6,1.1 -5.2,1.6 -8,1.6 l -204.2,0 c -5.7,0 -10.5,-2 -14.5,-5.9 -3.9,-3.9 -5.9,-8.8 -5.9,-14.5 l 0,-40.8 c 0,-5.7 2,-10.5 5.9,-14.5 4,-3.9 8.8,-5.9 14.5,-5.9 z m 0,-163.3 204.2,0 c 5.7,0 10.5,2 14.5,5.9 3.9,3.9 5.9,8.8 5.9,14.5 l 0,40.8 c 0,3.8 -1,7.3 -2.9,10.4 -1.9,3.1 -4.4,5.6 -7.3,7.3 -3,1.8 -6.4,2.7 -10.2,2.7 l -204.2,0 c -5.7,0 -10.5,-2 -14.5,-5.9 -3.9,-3.9 -5.9,-8.8 -5.9,-14.5 l 0,-40.8 c 0,-5.7 2,-10.5 5.9,-14.5 4,-4 8.8,-5.9 14.5,-5.9 z m 0,-163.4 204.2,0 c 5.7,0 10.5,2 14.5,5.9 3.9,3.9 5.9,8.8 5.9,14.5 l 0,40.8 c 0,3.8 -1,7.3 -2.9,10.4 -1.9,3.1 -4.4,5.6 -7.3,7.3 -3,1.8 -6.4,2.7 -10.2,2.7 l -204.2,0 c -5.7,0 -10.5,-2 -14.5,-5.9 -3.9,-3.9 -5.9,-8.8 -5.9,-14.5 l 0,-40.8 c 0,-5.7 2,-10.5 5.9,-14.5 4,-3.9 8.8,-5.9 14.5,-5.9 z m 418.6,-326.6 20.4,0 c 2.7,0 5.1,1 7.1,3.1 2,2 3.1,4.4 3.1,7.1 l 0,30.6 71.4,0 c 2.7,0 5.1,1 7.1,3.1 2,2 3.1,4.4 3.1,7.1 l 0,102.1 c 0,2.7 -1,5.1 -3.1,7.1 -2,2 -4.4,3.1 -7.1,3.1 l -71.5,0 0,40.8 71.5,0 c 2.7,0 5.1,1 7.1,3.1 2,2 3.1,4.4 3.1,7.1 l 0,20.4 c 0,2.7 -1,5.1 -3.1,7.1 -2,2 -4.4,3.1 -7.1,3.1 l -71.5,0 0,30.6 c 0,2.7 -1,5.1 -3.1,7.1 -2,2 -4.4,3.1 -7.1,3.1 l -20.3,0 c -2.7,0 -5.1,-1 -7.1,-3.1 -2,-2 -3.1,-4.4 -3.1,-7.1 l 0,-30.6 -71.5,0 c -2.7,0 -5.1,-1 -7.1,-3.1 -2,-2 -3.1,-4.4 -3.1,-7.1 l 0,-102.1 c 0,-2.7 1,-5.1 3.1,-7.1 2,-2 4.4,-3.1 7.1,-3.1 l 71.5,0 0,-40.8 -71.5,0 c -2.7,0 -5.1,-1 -7.1,-3.1 -2,-2 -3.1,-4.4 -3.1,-7.1 l 0,-20.4 c 0,-2.7 1,-5.1 3.1,-7.1 2,-2 4.4,-3.1 7.1,-3.1 l 71.5,0 0,-30.6 c 0,-2.7 1,-5.1 3.1,-7.1 2,-2.1 4.3,-3.1 7.1,-3.1 z m -50.7,163.3 0,40.8 40.4,0 0,-40.8 -40.4,0 z m 81.7,-81.7 0,40.8 40.4,0 0,-40.8 -40.4,0 z"
         inkscape:connector-curvature="0"
         style="fill:#33475f;fill-opacity:1" /></g></g></svg>